<svg id="Calque_1" data-name="Calque 1" xmlns="http://www.w3.org/2000/svg" viewBox="0 0 1068.31 861.95"><defs><style>.cls-1{fill:#231f20;}</style></defs><title>shape2</title><path class="cls-1" d="M1000.19,233.48V214.4a38.7,38.7,0,0,0-38.69-38.7H865.64A38.7,38.7,0,0,0,827,214.4v18.74h-57l-24.79-79.25a63.79,63.79,0,0,0-60.89-44.75h-288a63.79,63.79,0,0,0-60.89,44.75l-24.79,79.25H86.19A80.54,80.54,0,0,0,5.66,313.68V836a80.54,80.54,0,0,0,80.53,80.53h232a331.33,331.33,0,0,1-110.13-247C208.08,486,356.8,337.3,540.25,337.3S872.43,486,872.43,669.47a331.33,331.33,0,0,1-110.13,247H993.44A80.53,80.53,0,0,0,1074,836V313.68A80.5,80.5,0,0,0,1000.19,233.48ZM375.85,174a27.73,27.73,0,0,1,26.46-19.45H678.19A27.73,27.73,0,0,1,704.66,174h0a40.21,40.21,0,0,1-38.37,52.2H414.22A40.2,40.2,0,0,1,375.85,174ZM229.16,367.39H91.21V300h138Z" transform="translate(-5.66 -109.14)"/><path class="cls-1" d="M713.24,916.48c77.75-54.56,128.63-144.81,128.63-247,0-166.57-135-301.61-301.62-301.61s-301.61,135-301.61,301.61c0,102.2,50.87,192.45,128.62,247a301.3,301.3,0,0,0,346,0Zm-399.82-247c0-125.27,101.56-226.83,226.83-226.83S767.09,544.2,767.09,669.47,665.53,896.31,540.25,896.31,313.42,794.75,313.42,669.47Z" transform="translate(-5.66 -109.14)"/><path class="cls-1" d="M540.25,861.21C646.14,861.21,732,775.36,732,669.47S646.14,477.73,540.25,477.73,348.51,563.58,348.51,669.47,434.36,861.21,540.25,861.21Zm71.1-321a25.86,25.86,0,1,1-25.85,25.85A25.85,25.85,0,0,1,611.35,540.21Zm-71.1,43.09a86.18,86.18,0,1,1-86.17,86.17A86.17,86.17,0,0,1,540.25,583.3Z" transform="translate(-5.66 -109.14)"/></svg>