<svg id="Calque_1" data-name="Calque 1" xmlns="http://www.w3.org/2000/svg" viewBox="0 0 1067.73 1067.73"><defs><style>.cls-1{fill:#e92529;}</style></defs><title>shape1</title><path class="cls-1" d="M539.82,6.18C245,6.18,6,245.2,6,540s239,533.87,533.87,533.87,533.86-239,533.86-533.87S834.66,6.18,539.82,6.18Zm0,892.26C341.88,898.44,181.43,738,181.43,540S341.88,181.65,539.82,181.65,898.21,342.11,898.21,540,737.75,898.44,539.82,898.44Z" transform="translate(-5.95 -6.18)"/><path class="cls-1" d="M530,263.67a274.87,274.87,0,0,0-143.87,46.41L603.34,463.9Z" transform="translate(-5.95 -6.18)"/><path class="cls-1" d="M554.47,816.19a275.12,275.12,0,0,0,142.14-48.33L480.82,615.05Z" transform="translate(-5.95 -6.18)"/><path class="cls-1" d="M727.9,337.36a275.59,275.59,0,0,0-133.56-68.48l44.5,260.46Z" transform="translate(-5.95 -6.18)"/><path class="cls-1" d="M354.5,745.32a275.64,275.64,0,0,0,135.68,66.84L445.31,549.59Z" transform="translate(-5.95 -6.18)"/><path class="cls-1" d="M617.65,600.73l198.42-72.66a274.83,274.83,0,0,0-46.48-141.89Z" transform="translate(-5.95 -6.18)"/><path class="cls-1" d="M263.53,552.53a275,275,0,0,0,48.29,144.1L466.49,478.21Z" transform="translate(-5.95 -6.18)"/><path class="cls-1" d="M744.82,725.6a275.53,275.53,0,0,0,66.65-133.68L552.2,636.23Z" transform="translate(-5.95 -6.18)"/><path class="cls-1" d="M336.86,352.2a275.68,275.68,0,0,0-68.69,135.58L532,442.7Z" transform="translate(-5.95 -6.18)"/></svg>