<svg id="Calque_1" data-name="Calque 1" xmlns="http://www.w3.org/2000/svg" viewBox="0 0 594.78 278.38"><defs><style>.cls-1{fill:#ec1c24;}.cls-2{fill:#a6a8ab;}</style></defs><title>lab</title><path d="M66.65,168.41H26.23v90c7.35-12.86,24.59-17.72,24.59-17.72v-8.57H69.76C98.31,229.63,98.31,201,98.31,201,97,172.17,66.65,168.41,66.65,168.41Zm-.26,43H50.82v-21.8H66.11s8.49.85,9.06,10.9S66.39,211.45,66.39,211.45Z" transform="translate(-2.61 -50.55)"/><polygon points="105.8 117.88 105.8 186.1 130.34 186.1 130.34 174.4 160.31 174.4 160.31 186.1 185.43 186.1 185.43 117.88 160.6 117.88 160.6 151.99 130.91 151.99 130.34 117.88 105.8 117.88"/><path d="M148.22,282.89s17.84-15.41,0-35.11c0,0-7.28-4.28-13.84-3.71h-26v66.22h15.7V287.17h8l17.13,23.12h19.41Zm-7.71-17.13c.15,8.78-5.63,9.92-5.63,9.92H124.17V257.49H134C141.16,259.27,140.51,265.76,140.51,265.76Z" transform="translate(-2.61 -50.55)"/><path d="M250.14,189.18V166.34s-27.59-1.43-41.58,24.55,0,45.19,0,45.19h32c-14.37-6.18-13.89-23-13.89-23C228.07,190.17,250.14,189.18,250.14,189.18Z" transform="translate(-2.61 -50.55)"/><path d="M291.43,190.89c-14-26-41.57-24.55-41.57-24.55v22.83s22.07,1,23.5,24c0,0,.47,16.77-13.89,23h32S305.42,216.86,291.43,190.89Z" transform="translate(-2.61 -50.55)"/><path d="M223.86,244H209l-25.91,65.56h16.27l4.78-12.28h24.69l4.85,12.28h16.42ZM208.44,285.1,216.61,264l7.89,21.12Z" transform="translate(-2.61 -50.55)"/><path d="M309.48,267.62c1.43-20.69-18.12-23.6-18.12-23.6H261.25v66.27h16l-.14-19.55,9.56.14c6.14-.86,6.14-1.14,6.14-1.14C311.77,285.31,309.48,267.62,309.48,267.62Zm-15.55,0c-.72,9.85-6.28,10.13-6.28,10.13H277.23V256.63l8.35.29S294.64,257.77,293.93,267.62Z" transform="translate(-2.61 -50.55)"/><polygon points="300.74 117.88 300.74 139.19 327 139.19 327 185.53 352.12 185.53 352.12 139.19 378.37 139.38 378.37 117.88 300.74 117.88"/><polygon points="326.81 193.47 343.17 193.47 343.17 218.35 368.67 218.35 368.67 193.47 384.84 193.47 384.84 259.02 367.91 259.02 368.1 232.62 343.17 232.81 342.79 259.02 326.81 259.02 326.81 193.47"/><polygon points="393.41 193.47 413.77 193.47 431.65 219.68 450.11 193.47 469.71 193.47 440.79 233.57 440.79 259.02 422.52 259.02 422.33 233.38 393.41 193.47"/><path d="M430.16,189.66c0-3.1.29-9.3.29-9.3s-.3-8.46-.32-12.69a3,3,0,0,1,.23-1.16s0-.07,0-.1c-7.61.5-27.32,3.81-38.45,24.48-14,26,0,45.19,0,45.19h32c-14.37-6.18-13.89-23-13.89-23C411.06,195.76,424,191,430.16,189.66Z" transform="translate(-2.61 -50.55)"/><path d="M445.06,236.08h32.39A34.82,34.82,0,0,0,482.59,218h-23.4S456.76,230.94,445.06,236.08Z" transform="translate(-2.61 -50.55)"/><polygon class="cls-1" points="430.04 56.37 443.31 56.37 443.31 151.28 538.21 151.28 538.21 164.98 430.04 164.98 430.04 56.37"/><path class="cls-2" d="M438.64,50.56s48.23-1.15,56.51,49.37v52.24L484.21,158c-.1-.57-.19-16.08-.19-16.08s-11.68,16.67-35.39,20.93l.09-11.8s34.13-8,35.16-42.67-32.11-44.81-32.11-44.81-28.55-7.85-46.67,14S396,120.34,396,120.34,403.1,145,429.5,151l.29,11.8s-49-6.37-46.71-62.51C383.08,100.31,387.64,53.12,438.64,50.56Z" transform="translate(-2.61 -50.55)"/><path class="cls-2" d="M484.3,163.72,496,157.59v16.84s26.4-36.54,71.07-15.84a57.13,57.13,0,0,1,30.25,48.52s2.14,26-19.12,44.1c0,0-33.82,30.25-74.07.85,0,0-16.27-13.7-18.84-34.1h11.56s6.57,35.67,44,35.67,44.95-38.1,44.95-38.1,4.57-27.54-19.69-44.1S517.84,170,517.84,170s-18,10.28-20.83,29.12H484.3Z" transform="translate(-2.61 -50.55)"/><rect class="cls-1" y="253.46" width="20.74" height="4.66"/><rect class="cls-1" x="20.74" y="257.64" width="4.38" height="20.74"/><path d="M73.83,265.51l10.85-11s-8.42-11.21-26.33-10.07-25.41,13.13-25.41,13.13-16.12,20.41,0,41.89,41.67,10.63,41.67,10.63a29,29,0,0,0,12.28-10.06V272.36H59.77l.14,13.06h12l-.14,8.28s-11,9.78-23.19.07-3.64-26-3.64-26S56.42,250.32,73.83,265.51Z" transform="translate(-2.61 -50.55)"/></svg>